<?xml version="1.0" standalone="no"?><!DOCTYPE svg PUBLIC "-//W3C//DTD SVG 1.1//EN" "http://www.w3.org/Graphics/SVG/1.1/DTD/svg11.dtd"><svg t="1492227047265" class="icon" style="" viewBox="0 0 1024 1024" version="1.1" xmlns="http://www.w3.org/2000/svg" p-id="996" xmlns:xlink="http://www.w3.org/1999/xlink" width="32" height="32"><defs><style type="text/css"></style></defs><path d="M512 1008C238.064 1008 16 785.936 16 512 16 238.064 238.064 16 512 16c273.936 0 496 222.064 496 496C1008 785.936 785.936 1008 512 1008zM512 78C272.304 78 78 272.304 78 512c0 239.696 194.304 434 434 434 239.696 0 434-194.304 434-434C946 272.304 751.696 78 512 78zM459.6 684.704c-1.024 1.472-1.648 3.136-2.944 4.448-6.112 6.096-14.16 8.912-22.16 8.72-8 0.192-16.048-2.624-22.144-8.72-1.312-1.312-1.92-2.96-2.944-4.432l-152.064-152.064c-11.824-11.824-11.824-30.992 0-42.816 11.824-11.824 30.992-11.824 42.816 0l134.336 134.336L723.84 334.848c11.824-11.824 30.992-11.824 42.8 0 11.824 11.824 11.824 30.992 0 42.816L459.6 684.704z" p-id="997"></path></svg>